<svg width="149" height="32" viewBox="0 0 149 32" fill="none" xmlns="http://www.w3.org/2000/svg">
<path d="M16.6162 1.47363L20.8613 5.71875L11.7559 14.8857C14.8184 20.4502 16.7803 23.3145 17.6416 23.4785C18.5166 23.6426 19.5557 23.2188 20.7588 22.207L22.9941 27.7236C21.5039 29.3232 20.082 30.1914 18.7285 30.3281C17.3887 30.4785 16.042 30.3076 14.6885 29.8154C13.335 29.3232 10.8262 25.6455 7.16211 18.7822L5.91113 20.1357V30.0205H0.0664062V2.10938H5.89062L5.91113 12.1787L16.6162 1.47363ZM35.2168 0.0585938L40.2617 1.96582L39.667 3.93457H47.7881L46.9473 10.0049L42.5176 10.0254L49.5518 28.8721L44.1172 30.7383L36.8984 11.4609L28.8389 30.5742L23.3223 28.8926L31.2793 9.94336L25.4756 9.92285L25.9268 3.93457H33.5967L35.2168 0.0585938ZM37.8213 20.9766L40.959 24.4219L35.1553 30.2461L31.9971 26.8418L37.8213 20.9766ZM51.2539 2.10938H69.875L69.1162 8.26172H62.4922V21.5713C62.2598 23.6357 62.957 24.8594 64.584 25.2422L63.0869 31.0254C61.2139 31.0801 59.6279 30.4717 58.3291 29.2002C57.0439 27.9287 56.3809 26.2471 56.3398 24.1553V9.49219L58.9854 8.2207L50.6387 8.2002L51.2539 2.10938ZM82.8359 0.0585938L87.8809 1.96582L87.2861 3.93457H95.4072L94.5664 10.0049L90.1367 10.0254L97.1709 28.8721L91.7363 30.7383L84.5176 11.4609L76.458 30.5742L70.9414 28.8926L78.8984 9.94336L73.0947 9.92285L73.5459 3.93457H81.2158L82.8359 0.0585938ZM85.4404 20.9766L88.5781 24.4219L82.7744 30.2461L79.6162 26.8418L85.4404 20.9766ZM98.5039 2.1709H104.451L104.431 6.60059L105.128 4.87793C107.739 5.5752 109.667 6.36133 110.911 7.23633C112.169 8.09766 113.468 9.5127 114.808 11.4814L115.095 12.3018L115.074 2.21191H120.98V25.2217C121.076 26.2744 120.618 27.3955 119.606 28.585C118.608 29.7607 116.551 30.2666 113.434 30.1025V24.2988C114.801 24.1895 115.375 23.3076 115.156 21.6533C115.17 20.7236 114.965 19.7188 114.541 18.6387C114.131 17.5449 112.832 16.0957 110.645 14.291C108.471 12.4727 106.399 11.29 104.431 10.7432V30.1025H98.4629L98.5039 2.1709ZM134.352 0.0585938L139.396 1.96582L138.802 3.93457H146.923L146.082 10.0049L141.652 10.0254L148.687 28.8721L143.252 30.7383L136.033 11.4609L127.974 30.5742L122.457 28.8926L130.414 9.94336L124.61 9.92285L125.062 3.93457H132.731L134.352 0.0585938ZM136.956 20.9766L140.094 24.4219L134.29 30.2461L131.132 26.8418L136.956 20.9766Z" fill="white"/>
</svg>
