<?xml version="1.0" encoding="UTF-8" standalone="no"?>
<!-- Created with Inkscape (http://www.inkscape.org/) -->

<svg
   width="98.968002mm"
   height="98.968002mm"
   viewBox="0 0 98.968002 98.968003"
   version="1.1"
   id="svg5"
   xml:space="preserve"
   inkscape:version="1.2 (dc2aeda, 2022-05-15)"
   sodipodi:docname="logo.svg"
   xmlns:inkscape="http://www.inkscape.org/namespaces/inkscape"
   xmlns:sodipodi="http://sodipodi.sourceforge.net/DTD/sodipodi-0.dtd"
   xmlns="http://www.w3.org/2000/svg"
   xmlns:svg="http://www.w3.org/2000/svg"><sodipodi:namedview
     id="namedview7"
     pagecolor="#ffffff"
     bordercolor="#666666"
     borderopacity="1.0"
     inkscape:showpageshadow="2"
     inkscape:pageopacity="0.0"
     inkscape:pagecheckerboard="0"
     inkscape:deskcolor="#d1d1d1"
     inkscape:document-units="mm"
     showgrid="false"
     inkscape:zoom="0.2102413"
     inkscape:cx="130.80208"
     inkscape:cy="244.95663"
     inkscape:window-width="1536"
     inkscape:window-height="960"
     inkscape:window-x="0"
     inkscape:window-y="0"
     inkscape:window-maximized="0"
     inkscape:current-layer="layer1" /><defs
     id="defs2" /><g
     inkscape:label="Layer 1"
     inkscape:groupmode="layer"
     id="layer1"
     transform="translate(-63.771437,-98.097369)"><path
       style="fill:#000000;stroke-width:0.264583"
       id="path306"
       d="" /><path
       style="fill:#000000;stroke-width:0.264583"
       id="path304"
       d="" /><path
       style="fill:#000000;stroke-width:0.264583"
       id="path194"
       d="" /><path
       style="fill:#ffffff;stroke-width:0.264449"
       d="m 126.14436,191.59689 c 0.21137,-8.22985 -0.50472,-15.4695 -1.51857,-15.35268 -0.21537,0.0248 -1.70128,0.3542 -3.30201,0.73196 -5.46732,1.29024 -11.60158,1.19747 -17.21828,-0.2604 -1.4105,-0.36611 -2.61551,-0.61473 -2.6778,-0.5525 -0.0623,0.0622 -0.30516,1.10676 -0.5397,2.32117 -0.3314,1.71592 -0.43088,4.01383 -0.44636,10.31048 -0.011,4.45634 -0.1122,8.0455 -0.22496,7.9759 -0.440535,-0.27192 -2.059475,-3.84962 -2.572585,-5.68518 -0.98164,-3.51163 -1.36537,-6.59849 -1.51322,-12.17285 l -0.14535,-5.4801 -1.22149,-0.71075 c -5.03768,-2.93129 -10.94735,-9.3505 -12.06281,-13.10288 -0.22191,-0.7465 -0.40347,-2.28948 -0.40347,-3.42886 0,-2.06201 0.003,-2.07085 0.64316,-1.91033 1.55907,0.39091 5.18876,-1.42953 6.3351,-3.17733 l 0.4537,-0.69172 -1.40088,0.73559 c -1.12442,0.59042 -1.74027,0.7338 -3.12067,0.72655 -5.05841,-0.0266 -6.97087,-3.93189 -3.64227,-7.43767 l 0.7964,-0.83879 -1.02446,-0.87782 c -1.93853,-1.66103 -2.7815,-2.73648 -3.88597,-4.95768 -1.06882,-2.1495 -1.10714,-2.31459 -1.10427,-4.75769 0.006,-4.77888 1.75108,-6.7995 5.23284,-6.05766 2.28421,0.48668 3.47572,2.05315 5.0608,6.65337 0.39217,1.13816 0.94441,3.10071 1.22719,4.36121 l 0.51416,2.29185 -0.11294,-3.96475 c -0.14279,-5.01245 -0.78474,-7.44329 -2.55553,-9.67683 l -0.82447,-1.03993 1.00404,-1.24953 c 1.72888,-2.15158 4.81383,-4.98553 7.20312,-6.61705 5.21654,-3.56208 10.420915,-5.43931 17.035075,-6.14458 8.13869,-0.86784 17.41941,1.70164 24.16648,6.69078 1.98813,1.47012 5.38452,4.74062 6.58526,6.34115 l 0.7436,0.99118 -0.65469,0.85903 c -1.84494,2.42078 -2.553,4.94568 -2.76109,9.84578 -0.0864,2.03524 -0.0967,3.64096 -0.0229,3.56828 0.0738,-0.0727 0.39639,-1.38106 0.71683,-2.90749 0.64637,-3.07905 2.12159,-7.0859 3.07977,-8.36498 0.78704,-1.05063 2.60912,-1.94335 3.96644,-1.94335 1.56574,0 2.77223,0.77431 3.54577,2.2756 0.58723,1.13969 0.66605,1.6211 0.66605,4.06799 0,2.70574 -0.0264,2.82833 -1.05381,4.88985 -0.78347,1.5721 -1.54122,2.58915 -2.95388,3.96474 l -1.90008,1.85021 1.02854,1.14934 c 2.3065,2.57737 1.50182,5.81019 -1.65885,6.66445 -1.63535,0.442 -4.45771,0.18253 -5.64837,-0.51927 -0.53742,-0.31676 -1.02176,-0.53134 -1.07632,-0.47683 -0.0546,0.0545 0.46646,0.67329 1.15783,1.37509 1.49283,1.51535 3.17693,2.33028 4.87501,2.35897 1.14931,0.0195 1.24772,0.0756 1.39191,0.79501 0.41203,2.05566 -0.49506,5.35666 -2.18414,7.94834 -1.71548,2.63217 -6.55322,7.3409 -9.36876,9.1189 l -2.30205,1.45374 -0.0138,3.96475 c -0.0277,7.92536 -1.03575,13.54195 -3.21067,17.88817 -0.413,0.82531 -0.86227,1.56932 -0.99837,1.65335 -0.15232,0.094 -0.19199,-2.00748 -0.10318,-5.4653 z m -17.52057,-20.95154 c 2.10662,-0.73035 3.05024,-0.91728 4.63021,-0.91728 1.57997,0 2.52358,0.18693 4.6302,0.91728 3.864,1.33958 5.12801,1.19186 6.1149,-0.71465 0.90756,-1.75325 -0.34255,-3.98289 -3.36275,-5.99766 -4.39312,-2.93066 -10.50598,-2.90201 -14.85423,0.0696 -1.72607,1.17961 -3.26151,2.92611 -3.5372,4.02343 -0.23926,0.95235 0.0954,1.93654 0.94811,2.7884 1.02143,1.0204 2.09615,0.98694 5.43076,-0.16912 z m -7.49997,-9.71695 c 1.57203,-1.07628 3.95968,-2.13192 6.17705,-2.73104 1.44308,-0.3899 2.75773,-0.50041 5.95313,-0.50041 3.1954,0 4.51004,0.11051 5.95312,0.50041 3.65738,0.98819 6.36673,2.48856 8.84044,4.8956 l 1.33106,1.29518 0.8336,-0.83459 c 2.63172,-2.63483 2.73444,-6.72764 0.25907,-10.32185 l -0.82971,-1.20471 1.63781,-2.05488 c 0.9008,-1.13017 2.06527,-2.94693 2.58772,-4.03724 0.79641,-1.66207 0.94994,-2.26697 0.95016,-3.74373 2.3e-4,-1.53157 -0.10361,-1.90901 -0.79591,-2.89304 -2.10535,-2.99253 -7.09567,-3.33739 -10.74359,-0.74246 -0.41985,0.29866 -0.76336,0.64034 -0.76336,0.75931 0,0.11897 0.5412,0.29739 1.20266,0.39648 0.66146,0.0991 1.64372,0.34211 2.18281,0.54002 l 0.98016,0.35985 -1.93336,0.0187 c -3.88194,0.0374 -4.66502,0.50992 -6.41116,3.86858 -0.71056,1.36676 -0.79404,1.44953 -0.64894,0.64342 0.62003,-3.44458 1.43444,-4.91357 3.5272,-6.36211 4.51325,-3.12394 5.97907,-6.67083 4.20346,-10.17128 -1.34039,-2.64246 -4.98804,-5.14474 -8.60595,-5.90368 -1.80119,-0.37784 -5.7134,-0.37784 -7.51458,0 -5.00132,1.04913 -9.2073,4.90368 -9.2073,8.43798 0,2.59439 2.67625,6.19578 5.7668,7.7603 2.84046,1.43792 4.28737,3.41885 4.28737,5.86976 0,1.38623 -0.96575,3.72428 -1.45364,3.51921 -0.14466,-0.0608 -0.57115,-1.00262 -0.94776,-2.09291 -0.69649,-2.01639 -1.48611,-3.69126 -2.16974,-4.60228 -0.28395,-0.3784 -1.33617,-0.69353 -4.1879,-1.25425 l -3.808665,-0.74887 2.513535,0.12995 c 1.38245,0.0714 2.84097,0.20371 3.24115,0.29387 1.0108,0.22772 0.95467,-0.36996 -0.13229,-1.40868 -2.89768,-2.76907 -7.080155,-2.84396 -9.437135,-0.16899 -0.59376,0.67387 -1.21198,1.71409 -1.37381,2.31162 -0.69925,2.58171 0.35265,5.92629 2.97546,9.46071 l 1.34845,1.81711 -0.6798,0.98356 c -1.37995,1.99659 -1.88418,3.49747 -1.88442,5.6091 -2.5e-4,2.24252 0.39087,3.22487 1.91803,4.81746 l 0.94441,0.98487 1.3822,-1.35433 c 0.76021,-0.74488 1.899675,-1.70862 2.532165,-2.14165 z m 8.68805,-5.43807 c -1.57318,-0.83516 -2.6943,-3.00604 -1.74113,-3.37144 0.99691,-0.38217 3.45593,1.93657 3.28534,3.09789 -0.11673,0.79461 -0.45112,0.85384 -1.54421,0.27355 z m 5.30998,0.11108 c -0.39365,-0.47384 0.11093,-1.53196 1.24313,-2.60687 0.87991,-0.83538 2.24237,-1.08658 2.37798,-0.43845 0.1221,0.58357 -0.97897,2.11514 -2.02866,2.8218 -1.0479,0.70548 -1.177,0.72359 -1.59245,0.22352 z m -3.45535,-18.92314 c -1.46675,-0.68482 -2.28809,-1.4308 -2.91097,-2.64383 -0.48195,-0.93858 -0.98773,-3.42991 -0.69633,-3.42991 0.0863,0 0.38591,0.44603 0.66575,0.99119 0.65723,1.28036 1.46516,2.01838 2.94155,2.68703 3.03304,1.37366 6.60118,-0.14284 8.0325,-3.4139 0.0954,-0.21806 0.12295,0.27508 0.0612,1.09587 -0.2149,2.85591 -2.36899,4.91789 -5.38162,5.15148 -1.1722,0.0909 -1.79478,-0.01 -2.71208,-0.43793 z m 0.79902,-4.14361 c -1.21636,-0.62933 -2.12194,-2.01706 -2.12194,-3.25171 0,-2.01582 2.05576,-3.84843 4.04498,-3.60591 2.00468,0.24442 3.20053,1.59172 3.20053,3.60591 0,2.01418 -1.19585,3.3615 -3.20053,3.60592 -0.65458,0.0798 -1.3217,-0.0431 -1.92304,-0.35421 z M 96.056085,112.71484 c 0,-0.78786 0.91975,-3.51493 1.6997,-5.0396 3.662965,-7.16055 11.399945,-10.836993 19.334665,-9.187392 5.82822,1.211664 11.23991,6.235002 12.93909,12.010542 0.73609,2.50196 0.75753,2.48876 -2.12903,1.31095 -7.88615,-3.21782 -16.44921,-3.75246 -24.71204,-1.54293 -1.87926,0.50254 -3.12737,0.96931 -6.801655,2.54377 -0.1819,0.0779 -0.33073,0.0351 -0.33073,-0.0953 z"
       id="path320" /></g></svg>
